D:\school\WTK\thesis\model\3dpredictsim\Results\debug\Pog_s1_tmt_bCst_d00_k1000_ig24_act_TTC_ext_v1_GRF.mot
nRows=20
nColumns=19

name D:\school\WTK\thesis\model\3dpredictsim\Results\debug\Pog_s1_tmt_bCst_d00_k1000_ig24_act_TTC_ext_v1_GRF.mot
datacolumns 19
datarows 20
range 0.0000000000 0.2423175332
endheader
time 	ground_force_vx	ground_force_vy	ground_force_vz	ground_force_px	ground_force_py	ground_force_pz	1_ground_force_vx	1_ground_force_vy	1_ground_force_vz	1_ground_force_px	1_ground_force_py	1_ground_force_pz	ground_torque_x	ground_torque_y	ground_torque_z	1_ground_torque_x	1_ground_torque_y	1_ground_torque_z
        0.0000000000	      -73.9177321832	       63.9878111169	       19.5399979700	        0.2025518008	        0.0000000000	        0.0495111405	       82.2983234237	      358.7811125725	       -2.8747706509	       -0.3721574569	        0.0000000000	       -0.0307855876	        0.0000000000	        0.0000000000	        0.0000000000	        0.0000000000	        0.0000000000	        0.0000000000	
        0.0127535544	     -105.3714840482	      208.4024199914	       42.3700723080	        0.2091225027	        0.0000000000	        0.0480328785	       44.5736965208	      237.2372153378	      -13.6090579890	       -0.3589881722	        0.0000000000	       -0.0254253174	        0.0000000000	        0.0000000000	        0.0000000000	        0.0000000000	        0.0000000000	        0.0000000000	
        0.0255071088	      -73.6973656955	      453.3070112782	        2.5170882361	        0.2125271869	        0.0000000000	        0.0468606125	       25.0769508666	      179.4379835684	      -18.0822432477	       -0.3510657073	        0.0000000000	       -0.0218286010	        0.0000000000	        0.0000000000	        0.0000000000	        0.0000000000	        0.0000000000	        0.0000000000	
        0.0382606631	      -92.1279357215	      659.8948676878	      -14.7742988501	        0.2172020292	        0.0000000000	        0.0473920408	       23.4110962896	      144.6170193338	      -14.2075083696	       -0.3506258352	        0.0000000000	       -0.0216011929	        0.0000000000	        0.0000000000	        0.0000000000	        0.0000000000	        0.0000000000	        0.0000000000	
        0.0510142175	     -141.4315568127	      845.8825409048	      -20.4014505425	        0.2272820073	        0.0000000000	        0.0497162705	       12.4100200345	       94.8722419501	      -12.3311876689	       -0.3504972603	        0.0000000000	       -0.0216487398	        0.0000000000	        0.0000000000	        0.0000000000	        0.0000000000	        0.0000000000	        0.0000000000	
        0.0637677719	     -159.3851800129	      907.3751883322	      -21.9369553151	        0.2342382339	        0.0000000000	        0.0511822716	       -3.8895624035	       39.2782296304	       -6.6825785176	       -0.3514832279	        0.0000000000	       -0.0215684163	        0.0000000000	        0.0000000000	        0.0000000000	        0.0000000000	        0.0000000000	        0.0000000000	
        0.0765213263	     -149.1448080512	      886.4914607633	      -21.8530013275	        0.2389750391	        0.0000000000	        0.0520398316	       -5.9512413085	        5.8004738014	        0.4706064819	        0.0000000000	        0.0000000000	        0.0000000000	        0.0000000000	        0.0000000000	        0.0000000000	        0.0000000000	        0.0000000000	        0.0000000000	
        0.0892748806	     -132.6726799936	      833.3983414103	      -18.6624617155	        0.2427437218	        0.0000000000	        0.0525827496	       -8.0921608310	        6.3604629061	        0.9880183316	        0.0000000000	        0.0000000000	        0.0000000000	        0.0000000000	        0.0000000000	        0.0000000000	        0.0000000000	        0.0000000000	        0.0000000000	
        0.1020284350	     -116.4952875348	      787.0363009121	      -17.1571400824	        0.2465513066	        0.0000000000	        0.0527837273	       -6.2464249976	        4.2260114026	        0.7710217997	        0.0000000000	        0.0000000000	        0.0000000000	        0.0000000000	        0.0000000000	        0.0000000000	        0.0000000000	        0.0000000000	        0.0000000000	
        0.1147819894	     -102.0357306523	      747.9600524843	      -16.4921205127	        0.2505539615	        0.0000000000	        0.0527712963	       -3.8972995329	        2.3577415277	        0.4574545908	        0.0000000000	        0.0000000000	        0.0000000000	        0.0000000000	        0.0000000000	        0.0000000000	        0.0000000000	        0.0000000000	        0.0000000000	
        0.1275355438	      -90.4858757265	      718.4760599783	      -16.5748282043	        0.2552309660	        0.0000000000	        0.0525666077	       -2.5175058869	        1.4029264981	        0.2835586175	        0.0000000000	        0.0000000000	        0.0000000000	        0.0000000000	        0.0000000000	        0.0000000000	        0.0000000000	        0.0000000000	        0.0000000000	
        0.1402890982	      -79.9809479907	      694.0121835624	      -16.9874113567	        0.2603481574	        0.0000000000	        0.0522105831	       -1.8767105477	        0.9889894300	        0.1934096857	        0.0000000000	        0.0000000000	        0.0000000000	        0.0000000000	        0.0000000000	        0.0000000000	        0.0000000000	        0.0000000000	        0.0000000000	
        0.1530426525	      -69.7385121579	      669.2481738246	      -17.8699381617	        0.2652667292	        0.0000000000	        0.0518995733	       -1.2624754077	        0.6363745150	        0.1213924440	        0.0000000000	        0.0000000000	        0.0000000000	        0.0000000000	        0.0000000000	        0.0000000000	        0.0000000000	        0.0000000000	        0.0000000000	
        0.1657962069	      -60.0255557876	      646.1716209459	      -18.1987159205	        0.2698821122	        0.0000000000	        0.0517034796	       -0.8641238292	        0.4196341630	        0.0780600804	        0.0000000000	        0.0000000000	        0.0000000000	        0.0000000000	        0.0000000000	        0.0000000000	        0.0000000000	        0.0000000000	        0.0000000000	
        0.1785497613	      -51.1506742605	      626.3587127181	      -18.5468505356	        0.2743838974	        0.0000000000	        0.0515777313	       -0.6462031669	        0.3042799183	        0.0549156762	        0.0000000000	        0.0000000000	        0.0000000000	        0.0000000000	        0.0000000000	        0.0000000000	        0.0000000000	        0.0000000000	        0.0000000000	
        0.1913033157	      -43.4829125290	      610.0447344383	      -18.7094366170	        0.2789171787	        0.0000000000	        0.0514825265	       -0.5356072785	        0.2456652067	        0.0428085879	        0.0000000000	        0.0000000000	        0.0000000000	        0.0000000000	        0.0000000000	        0.0000000000	        0.0000000000	        0.0000000000	        0.0000000000	
        0.2040568700	      -37.1659083982	      597.3132487674	      -18.6575554413	        0.2834438324	        0.0000000000	        0.0513998612	       -0.4898882088	        0.2196177458	        0.0368013873	        0.0000000000	        0.0000000000	        0.0000000000	        0.0000000000	        0.0000000000	        0.0000000000	        0.0000000000	        0.0000000000	        0.0000000000	
        0.2168104244	      -31.8431095789	      588.2769412776	      -18.2268531895	        0.2879122047	        0.0000000000	        0.0513230103	       -0.4914582151	        0.2157139330	        0.0346510811	        0.0000000000	        0.0000000000	        0.0000000000	        0.0000000000	        0.0000000000	        0.0000000000	        0.0000000000	        0.0000000000	        0.0000000000	
        0.2295639788	      -26.4624387900	      582.3128485514	      -17.8363304651	        0.2926623016	        0.0000000000	        0.0511981612	       -0.5401271110	        0.2322494606	        0.0355153431	        0.0000000000	        0.0000000000	        0.0000000000	        0.0000000000	        0.0000000000	        0.0000000000	        0.0000000000	        0.0000000000	        0.0000000000	
        0.2423175332	      -22.1689599751	      578.0957155823	      -17.8311780543	        0.2978083549	        0.0000000000	        0.0509799925	       -0.6371407482	        0.2686798987	        0.0387785113	        0.0000000000	        0.0000000000	        0.0000000000	        0.0000000000	        0.0000000000	        0.0000000000	        0.0000000000	        0.0000000000	        0.0000000000	
